<svg width="30" height="30" viewBox="0 0 30 30" fill="none" xmlns="http://www.w3.org/2000/svg">
<g clip-path="url(#clip0_43_643)">
<path fill-rule="evenodd" clip-rule="evenodd" d="M14.2047 0.184239C13.052 0.5465 13.052 1.65256 13.052 2.6484C13.052 4.02896 13.1025 5.23493 11.8975 6.1651C11.6861 6.32733 11.454 6.46561 11.2051 6.55749C9.28531 7.2618 8.25804 4.99075 6.93325 4.11447C5.89661 3.42793 4.40152 3.92099 3.95057 5.07233C2.90458 7.74232 7.69668 8.6315 6.47667 11.4207C6.36814 11.6653 6.22033 11.8913 6.04631 12.0932C4.76455 13.5808 3.02622 12.7068 1.39268 13.0821C0.230673 13.3495 -0.0668524 14.6648 0.168917 15.6915C0.462692 16.9661 1.73324 16.9613 2.77923 16.9613C4.3267 16.9613 5.81053 17.04 6.52532 18.6927C7.36548 20.6303 5.02838 21.7599 4.12273 23.0787C3.49588 23.9926 3.85141 25.2867 4.74023 25.8832C5.54671 26.4244 6.59082 26.2206 7.27941 25.6058C8.3254 24.6717 9.34332 23.0196 10.9731 23.3882C11.2594 23.4531 11.5326 23.5626 11.7796 23.7207C13.5928 24.8782 12.777 26.7704 13.0894 28.5038C13.314 29.7527 14.7192 30.1598 15.8214 29.8137C16.974 29.4512 16.9759 28.3452 16.9759 27.3495C16.9759 25.9568 16.9123 24.7731 18.1304 23.8328C18.3418 23.6706 18.572 23.5321 18.8227 23.4404C20.7426 22.7359 21.7698 25.0072 23.0928 25.8832C24.1313 26.57 25.6264 26.0769 26.0773 24.9256C27.1214 22.2618 22.363 21.3713 23.5494 18.5772C24.4849 16.3754 26.7135 17.2489 28.5192 16.9233C29.7542 16.6999 30.1097 15.4013 29.859 14.3064C29.5615 13.0142 28.304 13.0366 27.2487 13.0366C25.6993 13.0366 24.2174 12.9579 23.5007 11.3052C22.6531 9.34686 25.0051 8.26737 25.8977 6.919C26.5114 5.99202 26.1858 4.71868 25.2858 4.11447C24.4793 3.5737 23.4352 3.77729 22.7466 4.39216C21.7006 5.32588 20.6864 6.9669 19.0529 6.60932C18.7217 6.53634 18.4129 6.39731 18.1341 6.20065C16.3827 4.95912 17.3277 3.10384 16.931 1.37861C16.6596 0.202576 15.2394 -0.140411 14.2047 0.184239ZM18.1454 10.7429C17.8161 10.7291 17.4848 10.7508 17.2004 10.7508H13.5067C12.8293 10.7508 12.0977 10.6752 11.4297 10.8049C10.3856 11.0075 10.2527 11.9008 10.2546 12.8003C10.2546 12.8594 10.2565 12.9186 10.2565 12.9775C10.2621 13.2451 10.2752 13.5093 10.2752 13.752C10.2752 14.6636 10.1685 15.6657 10.5484 16.5221C10.8085 17.1076 11.2763 17.6293 11.7815 18.1148L11.7983 18.1315L11.8432 18.1734L11.8863 18.2153C11.9012 18.2292 11.9162 18.243 11.9312 18.2569L11.9405 18.2649C12.0341 18.353 12.1295 18.4401 12.2231 18.5261L12.2867 18.5841L12.3746 18.6644L12.4289 18.7123C12.5131 18.7894 12.5973 18.8661 12.6796 18.9421L12.7208 18.9814C12.8331 19.086 12.9416 19.1895 13.0445 19.2924L13.0707 19.318L13.0801 19.3283C13.3608 19.615 13.6976 20.0435 14.0812 20.3582L14.098 20.3726C14.3151 20.5476 14.5433 20.6855 14.7847 20.741C14.8278 20.751 14.8689 20.7583 14.912 20.7628L14.9326 20.7644C14.9382 20.765 14.9456 20.7656 14.9513 20.7661L14.9718 20.7671L14.9756 20.7672C15.0617 20.7708 15.1496 20.7628 15.2394 20.741C15.9654 20.5652 16.5792 19.6827 17.0863 19.1769C17.8759 18.3858 19.0061 17.5632 19.4683 16.5221C19.8612 15.6344 19.7396 14.5817 19.7396 13.6365C19.7396 13.2041 19.807 12.6416 19.7508 12.1301C19.7097 11.7523 19.6012 11.4023 19.3523 11.1529L19.3448 11.1467L19.3336 11.1351C19.3223 11.1237 19.3092 11.1127 19.298 11.102C19.2699 11.0784 19.2419 11.0562 19.2138 11.0356C19.023 10.8994 18.7947 10.8238 18.5514 10.783C18.5364 10.7804 18.5215 10.7777 18.5046 10.7753C18.4391 10.7656 18.3718 10.7581 18.3044 10.7527L18.2913 10.7516L18.2558 10.7489L18.2183 10.7465L18.1828 10.7446L18.1454 10.7429Z" fill="#28DF99"/>
</g>
<defs>
<clipPath id="clip0_43_643">
<rect width="30" height="30" fill="white"/>
</clipPath>
</defs>
</svg>
