<svg xmlns="http://www.w3.org/2000/svg" viewBox="0 0 286 286"><defs><style>.cls-1{fill:#f8054d;}</style></defs><title>Recurso 5halley3</title><g id="Capa_2" data-name="Capa 2"><g id="Capa_1-2" data-name="Capa 1"><path class="cls-1" d="M143.69,92.36c-22.13,0-37.94,13.43-44.27,31.61h89.33C182.42,105,166.61,92.36,143.69,92.36Z"/><path class="cls-1" d="M143,0A143,143,0,1,0,286,143,143,143,0,0,0,143,0Zm89.22,158H98.63c5.54,19.77,22.93,33.2,45.06,33.2,14.23,0,22.13-3.95,34-15l26.88,27.66a85.42,85.42,0,0,1-60.87,25.3c-51.38,0-88.53-34.78-88.53-86.16,0-47.43,41.1-86.16,88.53-86.16,51.38,0,85.37,32.4,88.53,86.16Z"/></g></g></svg>