<svg width="82" height="30" viewBox="0 0 82 30" fill="none" xmlns="http://www.w3.org/2000/svg">
<rect x="0.852273" y="0.852273" width="79.4318" height="28.2955" rx="7.67045" stroke="white" stroke-width="1.70455"/>
<path d="M67.9021 10.3649C67.9021 10.5012 67.7622 10.6426 67.609 10.6426C67.4558 10.6426 67.3159 10.5012 67.3159 10.3649C67.3159 10.2285 67.4525 10.0921 67.609 10.0921C67.7655 10.0921 67.9021 10.2335 67.9021 10.3649Z" fill="white"/>
<path d="M71.5041 9.25056V10.5944H70.9728V9.4069C70.9728 9.23892 70.9262 9.11085 70.8363 9.01605C70.7464 8.9146 70.6331 8.87135 70.5199 8.87135C70.2817 8.87135 70.0503 9.06595 70.0503 9.36699V10.5928H69.514V9.40524C69.514 9.23726 69.4674 9.10919 69.3808 9.01439C69.2876 8.91293 69.1727 8.86969 69.0594 8.86969C68.8213 8.86969 68.5898 9.06428 68.5898 9.36532V10.5911H68.0586V8.44225H68.5948V8.66179C68.728 8.49048 68.9662 8.40399 69.2043 8.40399C69.4974 8.40399 69.7988 8.52873 69.927 8.77156C70.0486 8.57198 70.3367 8.42062 70.5765 8.41564H70.6198C70.8579 8.41564 71.0894 8.47884 71.2576 8.62686C71.4291 8.77156 71.5041 9.01273 71.5041 9.24724V9.25056Z" fill="white"/>
<path d="M71.8988 8.4422L72.3401 9.11081L72.7431 8.4422H73.3176L72.6565 9.52827L73.3675 10.5977H72.788C72.5849 10.285 72.4316 10.0272 72.3384 9.89085L71.8488 10.5977H71.2693L72.017 9.52827L71.3209 8.4422H71.8954H71.8988Z" fill="white"/>
<path d="M17.9219 7.56074C20.3465 7.56074 22.3832 9.61314 22.3832 11.9632C22.3832 14.3133 20.3449 16.3491 17.9219 16.3491H14.9893V20.5238H12.4431V7.55908H17.9235L17.9219 7.56074ZM17.8153 14.1221C18.9927 14.1221 19.8886 13.2273 19.8886 11.9649C19.8886 10.7025 18.9927 9.78944 17.8153 9.78944H14.9877V14.1221H17.8153Z" fill="white"/>
<path d="M28.7229 19.737C28.6697 19.7903 27.3358 20.4738 25.9303 20.4738C23.3125 20.4738 21.1526 18.2102 21.1526 15.5973C21.1526 12.9844 23.3125 10.7025 25.9303 10.7025C27.3358 10.7025 28.6697 11.3861 28.7229 11.4393V10.7724H31.1642V20.4206H28.7229V19.737ZM28.7063 15.5957C28.7063 14.0522 27.5989 12.9462 26.1601 12.9462C24.7213 12.9462 23.6139 14.0505 23.6139 15.5957C23.6139 17.1408 24.7196 18.2268 26.1601 18.2268C27.6005 18.2268 28.7063 17.1225 28.7063 15.5957Z" fill="white"/>
<path d="M31.1642 10.7225H33.4823L35.5172 16.547L37.6188 10.7225L39.5972 10.7325C38.9977 12.3641 38.8028 13.8792 38.3032 15.3013C37.7537 16.8281 37.2358 18.2136 36.7862 19.4759H36.8028L35.2358 23.8435H32.8178L34.3016 19.7736L31.1675 10.7208L31.1642 10.7225Z" fill="white"/>
<path d="M38.4365 14.7857L36.5048 20.3474H34.2567L31.1659 10.7341H33.6422L35.434 16.2959L37.6638 10.7142H39.8953L41.389 16.2959L43.3208 10.7341H45.797L42.4598 20.3474H40.2283L38.4365 14.7857Z" fill="white"/>
<path d="M52.0484 19.6805C51.9951 19.7337 50.6612 20.4173 49.2557 20.4173C46.6379 20.4173 44.478 18.1537 44.478 15.5408C44.478 12.9279 46.6379 10.646 49.2557 10.646C50.6612 10.646 51.9951 11.3296 52.0484 11.3828V10.7159H54.4897V20.3641H52.0484V19.6805ZM52.0317 15.5391C52.0317 13.9957 50.9243 12.8897 49.4855 12.8897C48.0467 12.8897 46.9393 13.994 46.9393 15.5391C46.9393 17.0843 48.0451 18.1703 49.4855 18.1703C50.926 18.1703 52.0317 17.066 52.0317 15.5391Z" fill="white"/>
<path d="M65.5638 7.32953L59.001 7.34782C59.001 7.34782 58.2616 7.57402 58.4464 8.18109C58.4464 8.18109 58.4614 8.49211 59.1092 8.57693H63.389L61.0359 12.6934L63.5355 10.7275L64.5696 9.37693L64.4964 13.1657C64.4964 13.1657 64.6812 13.7728 65.2657 13.688C65.2657 13.688 65.8819 13.688 65.8353 12.8547C65.7886 12.0214 65.9268 7.85677 65.9268 7.85677C65.9035 7.86508 66.0218 7.48421 65.5622 7.32953H65.5638Z" fill="white"/>
<path d="M54.4281 10.7225H56.8694L59.0126 16.547L61.0126 12.9944L63.6521 10.8954C63.0193 12.527 62.4731 13.8809 61.9468 15.3029C61.3673 16.8298 60.8228 18.2152 60.3482 19.4776H60.3665L58.7162 23.8451H56.17L57.7337 19.7753L54.4314 10.7225H54.4281Z" fill="white"/>
</svg>
