<svg width="23" height="30" viewBox="0 0 23 30" fill="none" xmlns="http://www.w3.org/2000/svg">
<path fill-rule="evenodd" clip-rule="evenodd" d="M9.14856 1.15335C10.1956 -0.38445 12.4627 -0.38445 13.5097 1.15335L20.865 11.9565C22.0334 13.6726 22.6582 15.7006 22.6582 17.7766C22.6582 24.0335 17.586 29.1057 11.3291 29.1057C5.07222 29.1057 0 24.0335 0 17.7766C0 15.7006 0.624844 13.6726 1.79323 11.9565L9.14856 1.15335ZM11.3291 24.8573C15.2397 24.8573 18.4098 21.6872 18.4098 17.7766C18.4098 13.8661 15.2397 10.6959 11.3291 10.6959C7.41856 10.6959 4.24842 13.8661 4.24842 17.7766C4.24842 21.6872 7.41856 24.8573 11.3291 24.8573Z" fill="white"/>
</svg>
