<svg width="30" height="30" viewBox="0 0 30 30" fill="none" xmlns="http://www.w3.org/2000/svg">
<path fill-rule="evenodd" clip-rule="evenodd" d="M29.692 14.9844C30.5332 12.3196 29.6117 9.40031 27.4094 7.75337L18.6933 1.2352C16.4911 -0.411735 13.5089 -0.411733 11.3067 1.2352L2.59057 7.75338C0.38829 9.40031 -0.533232 12.3196 0.307964 14.9844L3.63721 25.531C4.47841 28.1958 6.89099 30 9.61316 30H20.3868C23.109 30 25.5216 28.1958 26.3628 25.531L29.692 14.9844ZM25.8684 14.6643C26.3731 13.0654 25.8202 11.3138 24.4988 10.3257L17.216 4.87938C15.8946 3.89122 14.1054 3.89122 12.784 4.87938L5.5012 10.3257C4.17983 11.3138 3.62692 13.0654 4.13164 14.6643L7.12614 24.1505C7.41612 25.0691 8.54641 25.3484 9.20995 24.6654L12.3342 21.4497C13.8065 19.9342 16.1936 19.9342 17.6659 21.4497L20.79 24.6654C21.4536 25.3484 22.5839 25.0691 22.8739 24.1505L25.8684 14.6643Z" fill="white"/>
<path d="M11.4503 12.535C11.4503 11.1063 12.5756 9.948 13.9637 9.948H16.369C17.7571 9.948 18.8824 11.1063 18.8824 12.535V15.0108C18.8824 16.4396 17.7571 17.5978 16.369 17.5978H13.9637C12.5756 17.5978 11.4503 16.4396 11.4503 15.0108V12.535Z" fill="white"/>
</svg>
