<?xml version="1.0" encoding="UTF-8" standalone="no"?> <!-- Created with Vectornator for iOS (http://vectornator.io/) --><!DOCTYPE svg PUBLIC "-//W3C//DTD SVG 1.1//EN" "http://www.w3.org/Graphics/SVG/1.1/DTD/svg11.dtd">
<svg style="fill-rule:evenodd;clip-rule:evenodd;stroke-linecap:round;stroke-linejoin:round;" xmlns:vectornator="http://vectornator.io" xmlns:xlink="http://www.w3.org/1999/xlink" xmlns="http://www.w3.org/2000/svg" xml:space="preserve" version="1.1" viewBox="0 0 1024 1024">
<metadata>
<vectornator:setting key="RulersVisible" value="1"/>
<vectornator:setting key="Units" value="Millimeters"/>
<vectornator:setting key="DynamicGuides" value="1"/>
<vectornator:setting key="GuidesVisible" value="1"/>
<vectornator:setting key="CMYKEnabledKey" value="0"/>
<vectornator:setting key="SnapToGuides" value="1"/>
<vectornator:setting key="GridSpacing" value="36"/>
</metadata>
<defs/>
<g id="Capa 1" vectornator:layerName="Capa 1" visibility="hidden">
<g opacity="1">
<path d="M502.384+0.0103501C304.461+1.38706+115.365+129.842+40.1814+312.886C-39.6025+495.589+1.88147+722.553+141.396+865.037C275.43+1009.32+496.192+1062.43+681.217+995.09C883.402+926.611+1031.55+720.719+1023.76+506.193C1026.77+289.354+870.645+85.0012+664.02+23.1576C614.846+7.79234+563.328+0.0218386+511.814+0.0443902C508.668+0.00184008+505.526-0.0115632+502.384+0.0103501ZM520.916+65.8575C711.864+66.8234+891.62+205.026+940.998+389.735C951.076+423.432+956.62+458.123+957.956+492.931L841.185+404.808L773.459+450.721L669.276+373.314L587.873+414.203L483.69+336.796L73.6905+593.676C55.8657+497.626+68.2937+395.924+114.491+308.747C188.075+161.675+347.221+64.0331+511.814+65.9119C514.85+65.8577+517.885+65.8422+520.916+65.8575Z" opacity="1" fill="#ffffff"/>
</g>
</g>
<g id="Capa 2" vectornator:layerName="Capa 2">
<path d="M512+0C229.23+0+0+229.23-0+512C-8.13802e-05+794.77+229.23+1024+512+1024C794.77+1024+1024+794.77+1024+512C1024+229.23+794.77+0+512+0ZM512+317.625C619.349+317.625+706.375+404.651+706.375+512C706.375+619.349+619.349+706.375+512+706.375C404.651+706.375+317.625+619.349+317.625+512C317.625+404.651+404.651+317.625+512+317.625Z" opacity="1" fill="#ffffff"/>
</g>
</svg>
