<svg width="40" height="40" viewBox="0 0 40 40" fill="none" xmlns="http://www.w3.org/2000/svg">
<rect width="40" height="40" fill="#EC498A"/>
<path d="M28.66 14.98C27.7874 13.4677 26.5315 12.2122 25.019 11.34C23.486 10.447 21.813 10 20 10C18.187 10 16.514 10.447 14.98 11.34C13.447 12.233 12.233 13.447 11.34 14.98C10.447 16.513 10 18.187 10 20C10 21.813 10.446 23.487 11.34 25.02C12.2123 26.5325 13.4683 27.7881 14.981 28.66C16.514 29.553 18.187 30 20 30C21.813 30 23.486 29.553 25.02 28.66C26.5325 27.7878 27.7884 26.5323 28.661 25.02C29.554 23.487 30 21.813 30 20C30 18.187 29.554 16.513 28.66 14.98ZM20 11.66C22 11.66 23.772 12.3 25.32 13.579C24.4 14.753 23.034 15.719 21.22 16.479C20.218 14.666 19.132 13.152 17.959 11.939C18.6238 11.7552 19.3103 11.6613 20 11.66ZM13.51 14.8C14.2412 13.8714 15.1665 13.1138 16.221 12.58C17.433 13.781 18.546 15.28 19.561 17.08C17.561 17.68 15.447 17.98 13.22 17.98C12.647 17.98 12.214 17.967 11.92 17.94C12.2265 16.7944 12.7679 15.7251 13.51 14.8ZM11.66 20C11.66 19.946 11.663 19.88 11.67 19.8C11.677 19.72 11.68 19.654 11.68 19.6C11.934 19.614 12.321 19.62 12.841 19.62C15.507 19.62 17.987 19.253 20.28 18.52C20.467 18.893 20.661 19.313 20.86 19.78C19.54 20.073 18.186 20.786 16.799 21.92C15.412 23.054 14.4 24.247 13.76 25.5C12.36 23.913 11.66 22.08 11.66 20ZM20 28.34C18.106 28.34 16.406 27.753 14.899 26.581C15.5 25.394 16.423 24.259 17.67 23.18C18.916 22.1 20.153 21.427 21.38 21.16C22.154 23.299 22.6775 25.5205 22.94 27.78C22.0029 28.1462 21.0061 28.336 20 28.34ZM27.08 24.38C26.4255 25.4345 25.5441 26.3299 24.5 27.001C24.26 24.921 23.8 22.894 23.121 20.92C24.053 20.854 24.886 20.82 25.621 20.82C26.42 20.82 27.307 20.854 28.28 20.92C28.1495 22.1498 27.739 23.3334 27.08 24.38ZM25.84 19.38C24.68 19.38 23.607 19.427 22.62 19.52C22.4109 18.9728 22.1841 18.4325 21.94 17.9C24.006 16.994 25.472 15.894 26.339 14.6C27.539 16.014 28.193 17.627 28.299 19.44C27.487 19.4 26.667 19.38 25.84 19.38Z" fill="white"/>
</svg>
