<svg width="30" height="30" viewBox="0 0 30 30" fill="none" xmlns="http://www.w3.org/2000/svg">
<path d="M15 0C23.2843 0 30 6.71573 30 15C30 23.2843 23.2843 30 15 30C6.71573 30 0 23.2843 0 15C0 6.71573 6.71573 0 15 0ZM23.0312 16.2432C20.3687 15.9975 17.4809 16.0453 15.5518 16.8379L15.5059 16.8574C13.6239 17.6486 11.5808 19.6235 9.89941 21.6377C9.2074 22.4667 8.61542 23.2565 8.16309 23.8887C10.0561 25.3469 12.4257 26.2168 15 26.2168C20.6328 26.2168 25.2939 22.0647 26.0938 16.6543C25.2829 16.5131 24.2148 16.3524 23.0312 16.2432ZM15 3.7832C8.80508 3.7832 3.7832 8.80508 3.7832 15C3.7832 17.2272 4.43535 19.3008 5.55469 21.0459C5.96797 20.4901 6.45244 19.864 6.99512 19.2139C8.72591 17.1405 11.2609 14.5384 14.04 13.3701L14.1074 13.3418C16.95 12.172 20.6401 12.2238 23.3789 12.4766C24.3474 12.5659 25.2417 12.6869 26.001 12.8057C24.9806 7.66146 20.4439 3.7832 15 3.7832Z" fill="#4E71FF"/>
</svg>
