<svg width="82" height="30" viewBox="0 0 82 30" fill="none" xmlns="http://www.w3.org/2000/svg">
<rect x="0.852273" y="0.852273" width="79.4318" height="28.2955" rx="7.67045" stroke="#0D1156" stroke-width="1.70455"/>
<path d="M67.902 10.3649C67.902 10.5013 67.7621 10.6427 67.6089 10.6427C67.4557 10.6427 67.3158 10.5013 67.3158 10.3649C67.3158 10.2285 67.4524 10.0921 67.6089 10.0921C67.7654 10.0921 67.902 10.2335 67.902 10.3649Z" fill="#0D1156"/>
<path d="M71.504 9.25053V10.5944H70.9727V9.40687C70.9727 9.23889 70.9261 9.11082 70.8362 9.01602C70.7463 8.91456 70.633 8.87132 70.5198 8.87132C70.2816 8.87132 70.0502 9.06592 70.0502 9.36696V10.5927H69.514V9.40521C69.514 9.23723 69.4673 9.10916 69.3807 9.01436C69.2875 8.9129 69.1726 8.86966 69.0593 8.86966C68.8212 8.86966 68.5897 9.06425 68.5897 9.36529V10.5911H68.0585V8.44222H68.5947V8.66176C68.7279 8.49045 68.9661 8.40396 69.2042 8.40396C69.4973 8.40396 69.7987 8.5287 69.9269 8.77153C70.0485 8.57195 70.3366 8.42059 70.5764 8.4156H70.6197C70.8578 8.4156 71.0893 8.47881 71.2575 8.62683C71.429 8.77153 71.504 9.01269 71.504 9.24721V9.25053Z" fill="#0D1156"/>
<path d="M71.8986 8.44223L72.3399 9.11084L72.7429 8.44223H73.3175L72.6563 9.5283L73.3674 10.5977H72.7879C72.5847 10.2851 72.4315 10.0273 72.3383 9.89088L71.8487 10.5977H71.2692L72.0169 9.5283L71.3208 8.44223H71.8953H71.8986Z" fill="#0D1156"/>
<path d="M17.9219 7.56077C20.3465 7.56077 22.3832 9.61317 22.3832 11.9633C22.3832 14.3134 20.3449 16.3491 17.9219 16.3491H14.9893V20.5238H12.4431V7.55911H17.9235L17.9219 7.56077ZM17.8153 14.1221C18.9927 14.1221 19.8886 13.2273 19.8886 11.9649C19.8886 10.7026 18.9927 9.78947 17.8153 9.78947H14.9877V14.1221H17.8153Z" fill="#0D1156"/>
<path d="M28.7229 19.7371C28.6696 19.7903 27.3357 20.4739 25.9302 20.4739C23.3124 20.4739 21.1525 18.2102 21.1525 15.5974C21.1525 12.9845 23.3124 10.7025 25.9302 10.7025C27.3357 10.7025 28.6696 11.3861 28.7229 11.4393V10.7724H31.1642V20.4206H28.7229V19.7371ZM28.7062 15.5957C28.7062 14.0522 27.5988 12.9462 26.16 12.9462C24.7212 12.9462 23.6138 14.0506 23.6138 15.5957C23.6138 17.1408 24.7196 18.2269 26.16 18.2269C27.6005 18.2269 28.7062 17.1225 28.7062 15.5957Z" fill="#0D1156"/>
<path d="M31.1642 10.7225H33.4823L35.5172 16.5471L37.6188 10.7225L39.5972 10.7325C38.9977 12.3641 38.8028 13.8793 38.3032 15.3013C37.7537 16.8281 37.2358 18.2136 36.7862 19.476H36.8028L35.2358 23.8435H32.8178L34.3016 19.7737L31.1675 10.7209L31.1642 10.7225Z" fill="#0D1156"/>
<path d="M38.4365 14.7857L36.5047 20.3474H34.2566L31.1659 10.7341H33.6421L35.434 16.2959L37.6638 10.7142H39.8953L41.389 16.2959L43.3207 10.7341H45.797L42.4598 20.3474H40.2283L38.4365 14.7857Z" fill="#0D1156"/>
<path d="M52.0484 19.6805C51.9952 19.7337 50.6613 20.4173 49.2558 20.4173C46.638 20.4173 44.4781 18.1537 44.4781 15.5408C44.4781 12.9279 46.638 10.646 49.2558 10.646C50.6613 10.646 51.9952 11.3296 52.0484 11.3828V10.7159H54.4897V20.3641H52.0484V19.6805ZM52.0318 15.5391C52.0318 13.9957 50.9244 12.8897 49.4856 12.8897C48.0468 12.8897 46.9394 13.994 46.9394 15.5391C46.9394 17.0843 48.0451 18.1703 49.4856 18.1703C50.9261 18.1703 52.0318 17.066 52.0318 15.5391Z" fill="#0D1156"/>
<path d="M65.5638 7.32959L59.001 7.34789C59.001 7.34789 58.2616 7.57408 58.4464 8.18115C58.4464 8.18115 58.4614 8.49217 59.1092 8.57699H63.389L61.036 12.6934L63.5355 10.7275L64.5697 9.37699L64.4964 13.1658C64.4964 13.1658 64.6812 13.7728 65.2658 13.688C65.2658 13.688 65.8819 13.688 65.8353 12.8548C65.7887 12.0215 65.9269 7.85683 65.9269 7.85683C65.9036 7.86514 66.0218 7.48427 65.5622 7.32959H65.5638Z" fill="#0D1156"/>
<path d="M54.4281 10.7225H56.8694L59.0126 16.547L61.0126 12.9944L63.6521 10.8955C63.0193 12.5271 62.4731 13.8809 61.9468 15.303C61.3673 16.8298 60.8228 18.2152 60.3482 19.4776H60.3665L58.7162 23.8452H56.17L57.7337 19.7753L54.4314 10.7225H54.4281Z" fill="#0D1156"/>
</svg>
