<?xml version="1.0" encoding="UTF-8" standalone="no"?>
<!DOCTYPE svg PUBLIC "-//W3C//DTD SVG 1.1//EN" "http://www.w3.org/Graphics/SVG/1.1/DTD/svg11.dtd">
<svg width="100%" height="100%" viewBox="0 0 1198 1228" version="1.1" xmlns="http://www.w3.org/2000/svg" xmlns:xlink="http://www.w3.org/1999/xlink" xml:space="preserve" xmlns:serif="http://www.serif.com/" style="fill-rule:evenodd;clip-rule:evenodd;stroke-linejoin:round;stroke-miterlimit:2;">
    <g transform="matrix(1,0,0,1,-1312,-390)">
        <g transform="matrix(0.715903,0,0,0.715903,726.163,259.564)">
            <path d="M1673.19,183.379L1673.19,476.678C1600.78,477.341 1531.98,490.699 1466.79,516.751C1399.89,543.485 1341.36,581.294 1291.18,630.178C1241.01,679.062 1201.1,738.257 1171.45,807.765C1141.81,877.272 1126.98,954.799 1126.98,1040.35C1126.98,1125.89 1141.81,1203.42 1171.45,1272.93C1201.1,1342.43 1241.39,1401.63 1292.33,1450.51C1343.26,1499.4 1402.17,1537.21 1469.07,1563.94C1535.97,1590.67 1607.42,1604.04 1683.44,1604.04C1770.11,1604.04 1843.47,1591.44 1903.52,1566.23C1963.58,1541.03 2014.89,1508.56 2057.46,1468.85C2087.87,1441.35 2114.09,1406.6 2136.14,1364.59C2158.18,1322.58 2175.29,1275.6 2187.45,1223.66L1674.32,1223.66L1674.32,960.145L2474.8,960.145C2479.37,978.477 2483.17,1000.63 2486.21,1026.6C2489.25,1052.57 2490.77,1078.54 2490.77,1104.51C2490.77,1209.91 2474.8,1309.21 2442.88,1402.39C2410.95,1495.58 2360.78,1578.84 2292.36,1652.16C2219.38,1730.07 2131.96,1790.41 2030.09,1833.18C1928.23,1875.96 1811.92,1897.35 1681.16,1897.35C1562.57,1897.35 1450.83,1875.96 1345.92,1833.18C1241.01,1790.41 1149.79,1730.83 1072.25,1654.45C994.709,1578.07 933.134,1487.56 887.522,1382.92C841.91,1278.27 819.105,1164.08 819.105,1040.35C819.105,916.608 841.91,802.418 887.522,697.775C933.134,593.133 994.709,502.621 1072.25,426.239C1149.79,349.858 1241.01,290.28 1345.92,247.507C1448.48,205.691 1557.57,184.315 1673.19,183.379Z" style="fill:white;fill-rule:nonzero;"/>
        </g>
    </g>
</svg>
