<?xml version="1.0" encoding="UTF-8" standalone="no"?>
<!DOCTYPE svg PUBLIC "-//W3C//DTD SVG 1.1//EN" "http://www.w3.org/Graphics/SVG/1.1/DTD/svg11.dtd">
<svg width="100%" height="100%" viewBox="0 0 1114 760" version="1.1" xmlns="http://www.w3.org/2000/svg" xmlns:xlink="http://www.w3.org/1999/xlink" xml:space="preserve" xmlns:serif="http://www.serif.com/" style="fill-rule:evenodd;clip-rule:evenodd;stroke-linejoin:round;stroke-miterlimit:2;">
    <g transform="matrix(1,0,0,1,-1368,-642)">
        <g transform="matrix(0.596292,0,0,0.596292,763.252,628.405)">
            <g transform="matrix(51.5453,0,0,67.5903,-64306,-71803.8)">
                <g transform="matrix(12,0,0,12,1267.46,1081.52)">
                    <path d="M0.6,-0.8L0.6,-1L0.2,-1L0.2,-0.8L0.6,-0.8ZM0,0L0,-1.2L0.8,-1.2L0.8,-0.6L0.2,-0.6L0.2,0L0,0Z" style="fill:url(#_Linear1);fill-rule:nonzero;"/>
                </g>
                <g transform="matrix(12,0,0,12,1279.46,1081.52)">
                    <path d="M0,0L0,-1.2L0.8,-1.2L0.8,-1L0.2,-1L0.2,-0.8L0.8,-0.8L0.8,-0.6L0.2,-0.6L0.2,-0.2L0.8,-0.2L0.8,0L0,0Z" style="fill:url(#_Linear2);fill-rule:nonzero;"/>
                </g>
                <g transform="matrix(12,0,0,12,1291.46,1081.52)">
                    <path d="M0.2,0L0.2,-0.2L0.4,-0.2L0.4,0L0.2,0ZM0.6,0L0.6,-0.2L0.8,-0.2L0.8,0L0.6,0ZM0.4,-0.2L0.4,-0.6L0.6,-0.6L0.6,-0.2L0.4,-0.2ZM0,-0.2L0,-1.2L0.2,-1.2L0.2,-0.2L0,-0.2ZM0.8,-0.2L0.8,-1.2L1,-1.2L1,-0.2L0.8,-0.2Z" style="fill:url(#_Linear3);fill-rule:nonzero;"/>
                </g>
            </g>
            <g transform="matrix(10.5219,0,0,7.70578,-4893.31,-14175)">
                <g transform="matrix(16.5712,0,0,21.7294,560.99,1858.61)">
                    <path d="M0.773,-0.358C0.773,-0.252 0.738,-0.163 0.667,-0.092C0.596,-0.02 0.508,0.016 0.405,0.016C0.301,0.016 0.214,-0.02 0.143,-0.092C0.072,-0.163 0.037,-0.252 0.037,-0.358C0.037,-0.464 0.072,-0.553 0.143,-0.624C0.214,-0.696 0.301,-0.732 0.405,-0.732C0.509,-0.732 0.596,-0.696 0.667,-0.623C0.738,-0.552 0.773,-0.463 0.773,-0.358ZM0.131,-0.358C0.131,-0.275 0.157,-0.207 0.209,-0.153C0.262,-0.099 0.327,-0.072 0.405,-0.072C0.483,-0.072 0.548,-0.099 0.6,-0.153C0.653,-0.206 0.679,-0.275 0.679,-0.358C0.679,-0.441 0.653,-0.51 0.6,-0.563C0.548,-0.617 0.483,-0.644 0.405,-0.644C0.327,-0.644 0.262,-0.617 0.209,-0.563C0.157,-0.509 0.131,-0.441 0.131,-0.358Z" style="fill:white;fill-rule:nonzero;"/>
                </g>
                <g transform="matrix(16.5712,0,0,21.7294,590.983,1858.61)">
                    <path d="M0.164,0L0.072,0L0.072,-0.716L0.164,-0.716L0.413,-0.28L0.417,-0.28L0.666,-0.716L0.758,-0.716L0.758,0L0.666,0L0.666,-0.425L0.67,-0.545L0.666,-0.545L0.442,-0.152L0.388,-0.152L0.164,-0.545L0.16,-0.545L0.164,-0.425L0.164,0Z" style="fill:white;fill-rule:nonzero;"/>
                </g>
                <g transform="matrix(16.5712,0,0,21.7294,621.309,1858.61)">
                    <path d="M0.332,-0.603L0.215,-0.28L0.453,-0.28L0.336,-0.603L0.332,-0.603ZM0.114,0L0.012,0L0.282,-0.716L0.386,-0.716L0.656,0L0.554,0L0.485,-0.194L0.184,-0.194L0.114,0Z" style="fill:white;fill-rule:nonzero;"/>
                </g>
                <g transform="matrix(16.5712,0,0,21.7294,648.95,1858.61)">
                    <path d="M0.164,-0.628L0.164,-0.376L0.312,-0.376C0.349,-0.376 0.381,-0.388 0.407,-0.412C0.433,-0.437 0.446,-0.467 0.446,-0.503C0.446,-0.536 0.434,-0.566 0.409,-0.591C0.385,-0.616 0.355,-0.628 0.318,-0.628L0.164,-0.628ZM0.164,0L0.072,0L0.072,-0.716L0.316,-0.716C0.378,-0.716 0.431,-0.696 0.474,-0.655C0.518,-0.614 0.54,-0.563 0.54,-0.503C0.54,-0.454 0.524,-0.41 0.492,-0.372C0.459,-0.333 0.418,-0.309 0.369,-0.298L0.367,-0.295L0.568,-0.004L0.568,0L0.459,0L0.266,-0.29L0.164,-0.29L0.164,0Z" style="fill:white;fill-rule:nonzero;"/>
                </g>
                <g transform="matrix(16.5712,0,0,21.7294,675.099,1858.61)">
                    <path d="M0.49,-0.716L0.49,-0.628L0.164,-0.628L0.164,-0.401L0.458,-0.401L0.458,-0.315L0.164,-0.315L0.164,-0.088L0.49,-0.088L0.49,0L0.072,0L0.072,-0.716L0.49,-0.716Z" style="fill:white;fill-rule:nonzero;"/>
                </g>
                <g transform="matrix(16.5712,0,0,21.7294,700.652,1858.61)">
                    <path d="M0.072,0L0.072,-0.716L0.291,-0.716C0.4,-0.716 0.488,-0.683 0.555,-0.617C0.621,-0.551 0.654,-0.465 0.654,-0.358C0.654,-0.251 0.621,-0.164 0.555,-0.099C0.488,-0.033 0.4,0 0.291,0L0.072,0ZM0.164,-0.628L0.164,-0.088L0.291,-0.088C0.374,-0.088 0.44,-0.112 0.488,-0.16C0.536,-0.207 0.56,-0.273 0.56,-0.358C0.56,-0.442 0.536,-0.508 0.488,-0.556C0.44,-0.604 0.374,-0.628 0.291,-0.628L0.164,-0.628Z" style="fill:white;fill-rule:nonzero;"/>
                </g>
                <g transform="matrix(16.5712,0,0,21.7294,728.674,1858.61)">
                    <path d="M0.321,0.016C0.242,0.016 0.178,-0.01 0.129,-0.062C0.08,-0.113 0.056,-0.181 0.056,-0.266L0.056,-0.716L0.148,-0.716L0.148,-0.262C0.148,-0.203 0.163,-0.157 0.194,-0.123C0.225,-0.089 0.267,-0.072 0.321,-0.072C0.375,-0.072 0.417,-0.089 0.448,-0.123C0.479,-0.157 0.494,-0.203 0.494,-0.262L0.494,-0.716L0.586,-0.716L0.586,-0.266C0.586,-0.179 0.562,-0.111 0.514,-0.06C0.466,-0.009 0.402,0.016 0.321,0.016Z" style="fill:white;fill-rule:nonzero;"/>
                </g>
            </g>
        </g>
    </g>
    <defs>
        <linearGradient id="_Linear1" x1="0" y1="0" x2="1" y2="0" gradientUnits="userSpaceOnUse" gradientTransform="matrix(-0.0135563,-1.10619,1.45052,-0.0103382,1.51397,0.227031)"><stop offset="0" style="stop-color:rgb(0,177,223);stop-opacity:1"/><stop offset="1" style="stop-color:white;stop-opacity:1"/></linearGradient>
        <linearGradient id="_Linear2" x1="0" y1="0" x2="1" y2="0" gradientUnits="userSpaceOnUse" gradientTransform="matrix(-0.0135563,-1.10619,1.45052,-0.0103382,0.513965,0.227031)"><stop offset="0" style="stop-color:rgb(0,177,223);stop-opacity:1"/><stop offset="1" style="stop-color:white;stop-opacity:1"/></linearGradient>
        <linearGradient id="_Linear3" x1="0" y1="0" x2="1" y2="0" gradientUnits="userSpaceOnUse" gradientTransform="matrix(-0.0135563,-1.10619,1.45052,-0.0103382,-0.486035,0.227031)"><stop offset="0" style="stop-color:rgb(0,177,223);stop-opacity:1"/><stop offset="1" style="stop-color:white;stop-opacity:1"/></linearGradient>
    </defs>
</svg>
