<?xml version="1.0" encoding="UTF-8" standalone="no"?> <!-- Created with Vectornator for iOS (http://vectornator.io/) --><!DOCTYPE svg PUBLIC "-//W3C//DTD SVG 1.1//EN" "http://www.w3.org/Graphics/SVG/1.1/DTD/svg11.dtd">
<svg style="fill-rule:evenodd;clip-rule:evenodd;stroke-linecap:round;stroke-linejoin:round;" xmlns:vectornator="http://vectornator.io" xmlns:xlink="http://www.w3.org/1999/xlink" xmlns="http://www.w3.org/2000/svg" xml:space="preserve" version="1.1" viewBox="0 0 841.995 276.89">
<metadata>
<vectornator:setting key="DimensionsVisible" value="1"/>
<vectornator:setting key="New" value="1"/>
<vectornator:setting key="SnapToPoints" value="1"/>
<vectornator:setting key="GuidesVisible" value="1"/>
<vectornator:setting key="RulersVisible" value="1"/>
<vectornator:setting key="CMYKEnabledKey" value="0"/>
<vectornator:setting key="SnapToEdges" value="1"/>
<vectornator:setting key="DisplayWhiteBackground" value="0"/>
<vectornator:setting key="SnapToGuides" value="1"/>
<vectornator:setting key="GridSpacing" value="36"/>
<vectornator:setting key="Units" value="Millimeters"/>
<vectornator:setting key="DynamicGuides" value="1"/>
<vectornator:setting key="SnapToGrid" value="1"/>
</metadata>
<defs/>
<g id="Capa 1" vectornator:layerName="Capa 1">
<g opacity="1">
<path d="M101.28+154.083C85.0058+137.809+85.0058+111.424+101.28+95.1506C117.553+78.8768+143.938+78.8769+160.212+95.1506C176.486+111.424+176.486+137.809+160.212+154.083C143.938+170.357+117.553+170.357+101.28+154.083Z" opacity="1" fill="#3cc9ee"/>
<path d="M140.699+182.443L188.572+134.57C191.626+131.516+196.578+131.516+199.632+134.57L247.504+182.443C250.558+185.497+250.558+190.449+247.504+193.503L199.632+241.375C196.578+244.429+191.626+244.429+188.572+241.375L140.699+193.503C137.645+190.449+137.645+185.497+140.699+182.443Z" opacity="1" fill="#f10063"/>
<path d="M226.787+44.346L208.669+111.964C206.525+119.967+200.038+121.705+194.18+115.847L144.68+66.3467C138.821+60.4885+140.56+54.0013+148.562+51.8571L216.18+33.7389C224.183+31.5947+228.932+36.3436+226.787+44.346Z" opacity="1" fill="#f1bb00"/>
<path d="M347.327+118.158C347.327+125.096+343.473+129.612+334.883+129.612L321.998+129.612L321.998+107.036L334.883+107.036C343.473+107.036+347.327+111.331+347.327+118.158ZM306.581+94.2612L306.581+171.129L321.998+171.129L321.998+141.175L329.267+141.175L346.226+171.129L364.067+171.129L345.676+139.963C358.01+136.66+363.186+127.189+363.186+117.828C363.186+104.943+353.935+94.2612+335.434+94.2612L306.581+94.2612Z" opacity="1" fill="#000000"/>
<path d="M403.381+121.793C411.31+121.793+417.698+126.858+417.918+134.898L388.955+134.898C390.166+126.528+396.003+121.793+403.381+121.793ZM432.345+151.967L415.716+151.967C413.733+156.042+410.099+159.346+403.492+159.346C395.783+159.346+389.616+154.28+388.845+145.249L433.446+145.249C433.776+143.267+433.886+141.285+433.886+139.303C433.886+121.132+421.442+109.128+403.822+109.128C385.761+109.128+373.207+121.352+373.207+140.624C373.207+159.786+386.092+172.12+403.822+172.12C418.909+172.12+429.041+163.2+432.345+151.967Z" opacity="1" fill="#000000"/>
<path d="M441.155+140.624C441.155+159.786+453.709+172.12+471.329+172.12C486.526+172.12+496.768+163.53+500.072+150.535L483.443+150.535C481.571+156.042+477.606+158.905+471.219+158.905C462.629+158.905+456.903+152.518+456.903+140.624C456.903+128.731+462.629+122.233+471.219+122.233C477.606+122.233+481.681+125.537+483.443+130.713L500.072+130.713C496.768+117.057+486.526+109.128+471.329+109.128C453.709+109.128+441.155+121.462+441.155+140.624Z" opacity="1" fill="#000000"/>
<path d="M511.415+171.129L526.832+171.129L526.832+89.6359L511.415+89.6359L511.415+171.129Z" opacity="1" fill="#000000"/>
<path d="M538.065+140.404C538.065+159.456+550.399+172.12+565.817+172.12C575.508+172.12+582.446+167.495+586.08+162.209L586.08+171.129L601.608+171.129L601.608+110.119L586.08+110.119L586.08+118.819C582.446+113.753+575.728+109.128+565.927+109.128C550.399+109.128+538.065+121.352+538.065+140.404ZM586.08+140.624C586.08+152.187+578.371+158.575+569.892+158.575C561.632+158.575+553.813+151.967+553.813+140.404C553.813+128.841+561.632+122.674+569.892+122.674C578.371+122.674+586.08+129.061+586.08+140.624Z" opacity="1" fill="#000000"/>
<path d="M664.049+153.729C663.609+131.374+629.8+138.312+629.8+127.189C629.8+123.665+632.774+121.352+638.5+121.352C644.557+121.352+648.301+124.546+648.742+129.281L663.499+129.281C662.618+117.167+653.697+109.128+638.941+109.128C623.853+109.128+614.823+117.277+614.823+127.409C614.823+149.765+649.292+142.827+649.292+153.729C649.292+157.253+645.989+160.006+639.932+160.006C633.765+160.006+629.47+156.482+628.919+151.857L613.391+151.857C614.052+163.2+624.734+172.12+640.042+172.12C654.909+172.12+664.049+164.191+664.049+153.729Z" opacity="1" fill="#000000"/>
<path d="M724.068+153.729C723.627+131.374+689.819+138.312+689.819+127.189C689.819+123.665+692.792+121.352+698.519+121.352C704.576+121.352+708.32+124.546+708.76+129.281L723.517+129.281C722.636+117.167+713.716+109.128+698.959+109.128C683.872+109.128+674.842+117.277+674.842+127.409C674.842+149.765+709.311+142.827+709.311+153.729C709.311+157.253+706.007+160.006+699.95+160.006C693.783+160.006+689.488+156.482+688.938+151.857L673.41+151.857C674.071+163.2+684.753+172.12+700.06+172.12C714.927+172.12+724.068+164.191+724.068+153.729Z" opacity="1" fill="#000000"/>
<path d="M752.921+162.87C752.921+157.804+748.956+153.839+743.56+153.839C737.944+153.839+733.979+157.804+733.979+162.87C733.979+167.935+737.944+171.9+743.56+171.9C748.956+171.9+752.921+167.935+752.921+162.87Z" opacity="1" fill="#000000"/>
</g>
</g>
</svg>
