<?xml version="1.0" encoding="UTF-8" standalone="no"?>
<!DOCTYPE svg PUBLIC "-//W3C//DTD SVG 1.1//EN" "http://www.w3.org/Graphics/SVG/1.1/DTD/svg11.dtd">

<!-- Created with Vectornator (http://vectornator.io/) -->
<svg height="100%" stroke-miterlimit="10" style="fill-rule:nonzero;clip-rule:evenodd;stroke-linecap:round;stroke-linejoin:round;" version="1.1" viewBox="0 0 376 148" width="100%" xml:space="preserve" xmlns="http://www.w3.org/2000/svg" xmlns:vectornator="http://vectornator.io" xmlns:xlink="http://www.w3.org/1999/xlink">
<metadata>
<vectornator:setting key="IsTimeLapseWatermarkDisabled" value="false"/>
<vectornator:setting key="UndoHistoryDisabled" value="true"/>
<vectornator:setting key="VNDimensionsVisible" value="true"/>
<vectornator:setting key="VNSnapToGuides" value="true"/>
<vectornator:setting key="WDCMYKEnabledKey" value="false"/>
<vectornator:setting key="WDDisplayWhiteBackground" value="false"/>
<vectornator:setting key="WDDynamicGuides" value="false"/>
<vectornator:setting key="WDGuidesVisible" value="true"/>
<vectornator:setting key="WDIsolateActiveLayer" value="false"/>
<vectornator:setting key="WDOutlineMode" value="false"/>
<vectornator:setting key="WDRulersVisible" value="true"/>
<vectornator:setting key="WDSnapToEdges" value="false"/>
<vectornator:setting key="WDSnapToGrid" value="false"/>
<vectornator:setting key="WDSnapToPoints" value="false"/>
<vectornator:setting key="WDUnits" value="Points"/>
</metadata>
<defs/>
<g id="Untitled" vectornator:layerName="Untitled">
<g opacity="1">
<path d="M31.7923 117.071C25.9607 117.071 20.735 116.099 16.1151 114.155C11.4955 112.21 7.80328 109.332 5.03903 105.521C2.27478 101.71 0.816672 97.1208 0.665285 91.754L21.3408 91.754C21.6439 94.7875 22.6663 97.1013 24.4082 98.6958C26.1503 100.29 28.4222 101.088 31.2243 101.088C34.1024 101.088 36.3743 100.407 38.0405 99.0459C39.7066 97.6846 40.5398 95.7987 40.5398 93.3877C40.5398 91.3653 39.877 89.6931 38.5518 88.3703C37.2263 87.0482 35.5981 85.9593 33.6667 85.1036C31.7357 84.2485 28.9902 83.2759 25.4306 82.187C20.2806 80.5539 16.0773 78.9202 12.8207 77.2871C9.56417 75.6534 6.76207 73.2424 4.41413 70.0534C2.06648 66.8644 0.892654 62.7033 0.892654 57.5697C0.892654 49.9473 3.58121 43.9775 8.95833 39.661C14.3354 35.3439 21.3408 33.1857 29.9748 33.1857C38.7601 33.1857 45.8412 35.3439 51.2183 39.661C56.5955 43.9775 59.4735 49.9859 59.8523 57.6866L38.8358 57.6866C38.6842 55.0418 37.7377 52.9612 35.9956 51.4445C34.2538 49.9277 32.0197 49.1693 29.2933 49.1693C26.9453 49.1693 25.0518 49.8108 23.6131 51.0944C22.174 52.3779 21.4547 54.2252 21.4547 56.6363C21.4547 59.2805 22.6663 61.342 25.09 62.8196C27.5133 64.2978 31.3 65.8924 36.45 67.6032C41.6001 69.3923 45.7843 71.1031 49.003 72.7368C52.222 74.3699 55.005 76.7424 57.353 79.8536C59.7006 82.9649 60.8747 86.9705 60.8747 91.8709C60.8747 96.5375 59.7197 100.776 57.4096 104.588C55.0998 108.399 51.7485 111.432 47.356 113.688C42.9634 115.943 37.7755 117.071 31.7923 117.071Z" fill="#ffffff" fill-rule="evenodd" opacity="1" stroke="none"/>
<path d="M104.983 50.4529C112.254 50.4529 118.085 52.9221 122.478 57.8611C126.87 62.8001 129.067 69.587 129.067 78.2206L129.067 116.255L109.754 116.255L109.754 80.904C109.754 76.5477 108.656 73.1647 106.46 70.7536C104.264 68.342 101.31 67.1367 97.5988 67.1367C93.8878 67.1367 90.9343 68.342 88.7377 70.7536C86.5415 73.1647 85.4434 76.5477 85.4434 80.904L85.4434 116.255L66.0173 116.255L66.0173 0.17752L85.4434 0.17752L85.4434 59.903C87.4125 57.0249 90.1011 54.7308 93.5093 53.0194C96.9173 51.3086 100.742 50.4529 104.983 50.4529Z" fill="#ffffff" fill-rule="evenodd" opacity="1" stroke="none"/>
<path d="M197.827 82.654C197.827 84.5203 197.713 86.4649 197.486 88.4872L153.522 88.4872C153.825 92.532 155.094 95.6237 157.328 97.7623C159.562 99.9016 162.307 100.971 165.564 100.971C170.411 100.971 173.781 98.8708 175.674 94.6706L196.35 94.6706C195.29 98.9486 193.377 102.799 190.613 106.221C187.849 109.644 184.384 112.327 180.219 114.271C176.053 116.216 171.395 117.188 166.245 117.188C160.035 117.188 154.506 115.827 149.659 113.104C144.813 110.382 141.026 106.493 138.299 101.438C135.573 96.382 134.209 90.4704 134.209 83.7037C134.209 76.937 135.554 71.0254 138.243 65.9701C140.931 60.9142 144.699 57.0249 149.546 54.3029C154.393 51.5804 159.959 50.2197 166.245 50.2197C172.38 50.2197 177.833 51.5418 182.604 54.186C187.376 56.8309 191.105 60.6032 193.794 65.5031C196.482 70.4035 197.827 76.1205 197.827 82.654ZM177.947 77.4034C177.947 73.9812 176.81 71.2592 174.538 69.2368C172.266 67.2145 169.426 66.2033 166.018 66.2033C162.762 66.2033 160.016 67.1753 157.782 69.1199C155.548 71.0646 154.166 73.8257 153.635 77.4034L177.947 77.4034Z" fill="#ffffff" fill-rule="evenodd" opacity="1" stroke="none"/>
<path d="M235.233 99.3378L235.233 116.255L225.35 116.255C218.306 116.255 212.815 114.485 208.877 110.946C204.939 107.407 202.97 101.632 202.97 93.6209L202.97 0.17752L222.396 0.17752L222.396 51.1525L235.119 51.1525L235.119 67.7201L222.396 67.7201L222.396 93.8541C222.396 95.7987 222.85 97.1986 223.759 98.0543C224.668 98.91 226.182 99.3378 228.303 99.3378L235.233 99.3378Z" fill="#ffffff" fill-rule="evenodd" opacity="1" stroke="none"/>
<g opacity="1">
<path d="M279.004 116.255L259.691 88.9537L259.691 116.255L240.265 116.255L240.265 20.0308L259.691 20.0308L259.691 77.6366L278.89 51.1525L302.86 51.1525L276.504 83.8206L303.088 116.255L279.004 116.255Z" fill="#ffffff" fill-rule="evenodd" opacity="1" stroke="none"/>
<path d="M259.724 0.178116L279.061 0.178116L279.061 0.178116L279.061 20.0378L279.061 20.0378L259.724 20.0378L259.724 20.0378L259.724 0.178116L259.724 0.178116Z" fill="#ffffff" fill-rule="evenodd" opacity="1" stroke="none"/>
</g>
<path d="M375.225 51.1525L335.464 147.172L314.561 147.172L329.103 114.038L303.315 51.1525L325.013 51.1525L339.667 91.8709L354.209 51.1525L375.225 51.1525Z" fill="#ffffff" fill-rule="evenodd" opacity="1" stroke="none"/>
</g>
</g>
</svg>
