<?xml version="1.0" encoding="UTF-8" standalone="no"?>
<!DOCTYPE svg PUBLIC "-//W3C//DTD SVG 1.1//EN" "http://www.w3.org/Graphics/SVG/1.1/DTD/svg11.dtd">
<svg width="100%" height="100%" viewBox="0 0 421 422" version="1.1" xmlns="http://www.w3.org/2000/svg" xmlns:xlink="http://www.w3.org/1999/xlink" xml:space="preserve" xmlns:serif="http://www.serif.com/" style="fill-rule:evenodd;clip-rule:evenodd;stroke-linejoin:round;stroke-miterlimit:2;">
    <g transform="matrix(1,0,0,1,-1325,-329)">
        <g transform="matrix(2.63213,0,0,2.63213,-2416.96,-630.67)">
            <path d="M1497.37,365.583C1491.21,367.519 1491.21,373.43 1491.21,378.752C1491.21,386.13 1491.48,392.575 1485.04,397.546C1483.91,398.413 1482.67,399.152 1481.34,399.643C1471.08,403.407 1465.59,391.27 1458.51,386.587C1452.97,382.918 1444.98,385.553 1442.57,391.706C1436.98,405.975 1462.59,410.727 1456.07,425.633C1455.49,426.94 1454.7,428.148 1453.77,429.227C1446.92,437.177 1437.63,432.506 1428.9,434.512C1422.69,435.941 1421.1,442.97 1422.36,448.457C1423.93,455.269 1430.72,455.243 1436.31,455.243C1444.58,455.243 1452.51,455.664 1456.33,464.496C1460.82,474.851 1448.33,480.888 1443.49,487.936C1440.14,492.82 1442.04,499.736 1446.79,502.924C1451.1,505.816 1456.68,504.727 1460.36,501.441C1465.95,496.449 1471.39,487.62 1480.1,489.59C1481.63,489.937 1483.09,490.522 1484.41,491.367C1494.1,497.553 1489.74,507.665 1491.41,516.929C1492.61,523.603 1500.12,525.779 1506.01,523.929C1512.17,521.992 1512.18,516.081 1512.18,510.76C1512.18,503.317 1511.84,496.991 1518.35,491.966C1519.48,491.099 1520.71,490.359 1522.05,489.869C1532.31,486.104 1537.8,498.242 1544.87,502.924C1550.42,506.594 1558.41,503.959 1560.82,497.806C1566.4,483.57 1540.97,478.811 1547.31,463.879C1552.31,452.112 1564.22,456.78 1573.87,455.04C1580.47,453.846 1582.37,446.906 1581.03,441.055C1579.44,434.149 1572.72,434.269 1567.08,434.269C1558.8,434.269 1550.88,433.848 1547.05,425.016C1542.52,414.55 1555.09,408.781 1559.86,401.575C1563.14,396.621 1561.4,389.816 1556.59,386.587C1552.28,383.697 1546.7,384.785 1543.02,388.071C1537.43,393.061 1532.01,401.831 1523.28,399.92C1521.51,399.53 1519.86,398.787 1518.37,397.736C1509.01,391.101 1514.06,381.186 1511.94,371.966C1510.49,365.681 1502.9,363.848 1497.37,365.583ZM1518.43,422.011C1516.67,421.937 1514.9,422.053 1513.38,422.053L1493.64,422.053C1490.02,422.053 1486.11,421.649 1482.54,422.342C1476.96,423.425 1476.25,428.199 1476.26,433.006C1476.26,433.322 1476.27,433.638 1476.27,433.953C1476.3,435.383 1476.37,436.795 1476.37,438.092C1476.37,442.964 1475.8,448.319 1477.83,452.896C1479.22,456.025 1481.72,458.813 1484.42,461.408L1484.51,461.497L1484.75,461.721L1484.98,461.945C1485.06,462.019 1485.14,462.093 1485.22,462.167L1485.27,462.21C1485.77,462.681 1486.28,463.146 1486.78,463.606L1487.12,463.916L1487.59,464.345L1487.88,464.601C1488.33,465.013 1488.78,465.423 1489.22,465.829L1489.44,466.039C1490.04,466.598 1490.62,467.151 1491.17,467.701L1491.31,467.838L1491.36,467.893C1492.86,469.425 1494.66,471.715 1496.71,473.397L1496.8,473.474C1497.96,474.409 1499.18,475.146 1500.47,475.443C1500.7,475.496 1500.92,475.535 1501.15,475.559L1501.26,475.568C1501.29,475.571 1501.33,475.574 1501.36,475.577L1501.47,475.582L1501.49,475.583C1501.95,475.602 1502.42,475.559 1502.9,475.443C1506.78,474.503 1510.06,469.787 1512.77,467.084C1516.99,462.856 1523.03,458.46 1525.5,452.896C1527.6,448.152 1526.95,442.526 1526.95,437.475C1526.95,435.164 1527.31,432.158 1527.01,429.424C1526.79,427.405 1526.21,425.535 1524.88,424.202L1524.84,424.169L1524.78,424.107C1524.72,424.046 1524.65,423.987 1524.59,423.93C1524.44,423.804 1524.29,423.685 1524.14,423.575C1523.12,422.847 1521.9,422.443 1520.6,422.225C1520.52,422.211 1520.44,422.197 1520.35,422.184C1520,422.132 1519.64,422.092 1519.28,422.063L1519.21,422.057L1519.02,422.043L1518.82,422.03L1518.63,422.02L1518.43,422.011Z" style="fill:white;"/>
        </g>
    </g>
</svg>
