<?xml version="1.0" encoding="UTF-8"?>
<svg width="509.9" height="509.9" version="1.1" viewBox="0 0 134.91 134.91" xmlns="http://www.w3.org/2000/svg">
 <g transform="translate(-65.435 -52.286)">
  <rect y="1.4211e-14" width="264.58" height="264.58" opacity="0" stroke-width=".51241"/>
 </g>
 <g transform="translate(-65.435 -52.286)">
  <g transform="matrix(5.1523 0 0 5.1523 -403.04 -442.93)">
   <path transform="matrix(.051352 0 0 .051352 78.224 85.967)" d="m280.29 197.62c-18.269 0-32.979 14.708-32.979 32.977v443.96c0 18.269 14.71 32.967 32.979 32.967h443.95c18.269 0 32.979-14.698 32.979-32.967v-443.96c0-18.269-14.71-32.977-32.979-32.977h-146.71a75.439 75.439 0 0 1-75.262 73.953 75.439 75.439 0 0 1-75.271-73.953zm146.38 279.73h114.35v27.359h-42.748v125.68h-28.855v-125.68h-42.748zm135.08 0h51.725c12.112 0 23.014 1.8537 32.703 5.5586 9.6896 3.7049 17.955 8.9767 24.795 15.816 6.8397 6.6973 12.039 14.748 15.602 24.152 3.7049 9.4046 5.5586 19.735 5.5586 30.992 0 11.4-1.8537 21.802-5.5586 31.207-3.5623 9.4046-8.7618 17.455-15.602 24.152-6.8398 6.6973-15.105 11.899-24.795 15.604-9.6896 3.7049-20.591 5.5586-32.703 5.5586h-51.725zm28.854 27.359v98.322h21.59c8.4072 0 15.816-1.14 22.229-3.4199 6.4123-2.4224 11.756-5.7719 16.031-10.047 4.2749-4.2748 7.4798-9.4038 9.6172-15.389 2.1374-6.1273 3.207-12.897 3.207-20.307 0-7.4096-1.0696-14.107-3.207-20.092-2.1374-6.1272-5.3422-11.327-9.6172-15.602-4.2748-4.275-9.6189-7.5522-16.031-9.832-6.4122-2.4225-13.821-3.6348-22.229-3.6348z" fill="#fff" stroke-dashoffset="36.472" stroke-miterlimit="2" stroke-opacity=".48852" stroke-width="1.6344"/>
  </g>
  <rect x="-37.055" y="-5.5782" width="226.72" height="153.4" opacity="0" stroke-width=".106"/>
 </g>
</svg>
