<svg xmlns="http://www.w3.org/2000/svg" viewBox="0 0 111.35 159"><defs><style>.cls-1{fill:#fff;}</style></defs><title>Recurso 1</title><g id="Capa_2" data-name="Capa 2"><g id="Capa_1-2" data-name="Capa 1"><path class="cls-1" d="M46.51,0C62,0,73.35,7,79,16.45V1.51h32.32V106.82C111.35,135,95.1,159,58.61,159,27.22,159,6.81,143.12,4,118h32C38,125.91,45.94,131,57.1,131,69.38,131,79,124.59,79,106.82V91.88c-5.86,9.27-17,16.64-32.52,16.64C20.61,108.52,0,87.34,0,54.07S20.61,0,46.51,0ZM56,28.17c-12.1,0-23.06,9.07-23.06,25.9S43.86,80.35,56,80.35C68.25,80.35,79,71.08,79,54.26S68.25,28.17,56,28.17Z"/></g></g></svg>