<svg xmlns="http://www.w3.org/2000/svg" viewBox="0 0 369.92 257.8"><defs><style>.cls-1{fill:#fff;}</style></defs><title>Recurso 5</title><g id="Capa_2" data-name="Capa 2"><g id="Capa_1-2" data-name="Capa 1"><path class="cls-1" d="M369.92,86.78,308.23,6a15.3,15.3,0,0,0-12.16-6H73A15.31,15.31,0,0,0,60.71,6.14L.42,86.78H0L154,254.36a10.6,10.6,0,0,0,18.4-7.17v-78a31.58,31.58,0,0,0-10.06-23.48,33.49,33.49,0,1,1,45.17-.16A31.81,31.81,0,0,0,197.26,169v77.75a10.59,10.59,0,0,0,18.4,7.17L369.23,86.78Z"/></g></g></svg>