<svg width="40" height="40" viewBox="0 0 40 40" fill="none" xmlns="http://www.w3.org/2000/svg">
<rect width="40" height="40" fill="black"/>
<path fill-rule="evenodd" clip-rule="evenodd" d="M20.026 10C14.517 10 10.052 14.465 10.052 19.974C10.052 24.38 12.909 28.119 16.873 29.439C17.372 29.529 17.552 29.222 17.552 28.958C17.552 28.721 17.544 28.093 17.541 27.262C14.766 27.864 14.18 25.924 14.18 25.924C13.728 24.772 13.073 24.465 13.073 24.465C12.168 23.846 13.142 23.86 13.142 23.86C14.144 23.93 14.669 24.888 14.669 24.888C15.559 26.412 17.005 25.972 17.571 25.717C17.662 25.072 17.922 24.632 18.206 24.383C15.992 24.132 13.664 23.276 13.664 19.453C13.664 18.366 14.053 17.474 14.688 16.778C14.587 16.525 14.242 15.51 14.787 14.138C14.787 14.138 15.624 13.869 17.529 15.159C18.3426 14.9377 19.1818 14.8247 20.025 14.823C20.8682 14.8244 21.7075 14.9373 22.521 15.159C24.427 13.868 25.263 14.138 25.263 14.138C25.808 15.51 25.466 16.525 25.362 16.778C26.002 17.474 26.386 18.365 26.386 19.453C26.386 23.286 24.056 24.128 21.834 24.375C22.189 24.683 22.509 25.291 22.509 26.221C22.509 27.555 22.497 28.631 22.497 28.958C22.497 29.225 22.675 29.535 23.184 29.437C27.146 28.115 30 24.379 30 19.974C30 14.465 25.535 10 20.026 10Z" fill="white"/>
</svg>
