<svg width="40" height="40" viewBox="0 0 40 40" fill="none" xmlns="http://www.w3.org/2000/svg">
<rect width="40" height="40" fill="#0A66C2"/>
<path d="M28 11H12C11.7348 11 11.4804 11.1054 11.2929 11.2929C11.1054 11.4804 11 11.7348 11 12V28C11 28.2652 11.1054 28.5196 11.2929 28.7071C11.4804 28.8946 11.7348 29 12 29H28C28.2652 29 28.5196 28.8946 28.7071 28.7071C28.8946 28.5196 29 28.2652 29 28V12C29 11.7348 28.8946 11.4804 28.7071 11.2929C28.5196 11.1054 28.2652 11 28 11ZM16.339 26.337H13.667V17.747H16.339V26.337ZM15.003 16.574C14.5924 16.574 14.1987 16.4109 13.9084 16.1206C13.6181 15.8303 13.455 15.4366 13.455 15.026C13.455 14.6154 13.6181 14.2217 13.9084 13.9314C14.1987 13.6411 14.5924 13.478 15.003 13.478C15.4136 13.478 15.8073 13.6411 16.0976 13.9314C16.3879 14.2217 16.551 14.6154 16.551 15.026C16.551 15.4366 16.3879 15.8303 16.0976 16.1206C15.8073 16.4109 15.4136 16.574 15.003 16.574ZM26.338 26.337H23.669V22.16C23.669 21.164 23.651 19.883 22.281 19.883C20.891 19.883 20.68 20.969 20.68 22.09V26.338H18.013V17.748H20.573V18.922H20.61C20.965 18.247 21.837 17.535 23.134 17.535C25.838 17.535 26.337 19.313 26.337 21.627L26.338 26.337Z" fill="white"/>
</svg>
