<svg width="40" height="40" viewBox="0 0 40 40" fill="none" xmlns="http://www.w3.org/2000/svg">
<rect width="40" height="40" fill="#1CA1F1"/>
<path d="M27.633 15.997C27.646 16.172 27.646 16.346 27.646 16.52C27.646 21.845 23.593 27.981 16.186 27.981C13.904 27.981 11.784 27.32 10 26.172C10.324 26.209 10.636 26.222 10.973 26.222C12.786 26.2264 14.5476 25.6202 15.974 24.501C15.1334 24.4858 14.3186 24.2085 13.6432 23.7077C12.9679 23.207 12.4658 22.5079 12.207 21.708C12.456 21.745 12.706 21.77 12.968 21.77C13.329 21.77 13.692 21.72 14.029 21.633C13.1168 21.4488 12.2965 20.9544 11.7076 20.2337C11.1188 19.513 10.7977 18.6107 10.799 17.68V17.63C11.336 17.929 11.959 18.116 12.619 18.141C12.0661 17.7736 11.6127 17.275 11.2993 16.6898C10.986 16.1046 10.8223 15.4509 10.823 14.787C10.823 14.039 11.022 13.353 11.371 12.755C12.3831 14 13.6455 15.0186 15.0763 15.7447C16.5072 16.4708 18.0746 16.8882 19.677 16.97C19.615 16.67 19.577 16.359 19.577 16.047C19.5767 15.518 19.6807 14.9941 19.8831 14.5053C20.0854 14.0164 20.3821 13.5723 20.7562 13.1982C21.1303 12.8241 21.5744 12.5274 22.0632 12.3251C22.5521 12.1228 23.076 12.0188 23.605 12.019C24.765 12.019 25.812 12.505 26.548 13.291C27.4498 13.1166 28.3145 12.7874 29.104 12.318C28.8034 13.2488 28.1738 14.0381 27.333 14.538C28.1328 14.4468 28.9144 14.2365 29.652 13.914C29.1011 14.7171 28.4185 15.4214 27.633 15.997Z" fill="white"/>
</svg>
